<?xml version="1.0" encoding="utf-8"?>
<!-- Generator: Adobe Illustrator 28.0.0, SVG Export Plug-In . SVG Version: 6.00 Build 0)  -->
<svg version="1.1" id="Ebene_1" xmlns="http://www.w3.org/2000/svg" xmlns:xlink="http://www.w3.org/1999/xlink" x="0px" y="0px"
	 viewBox="0 0 144 185" style="enable-background:new 0 0 144 185;" xml:space="preserve " width="32px" height="32px">
<style type="text/css">
	.st0{fill:none;}
	.st1{fill-rule:evenodd;clip-rule:evenodd;fill:#FFFFFF;}
</style>
<path class="st0" d="M0,71.6C0,32.1,32.1,0,71.6,0c39.6,0,71.6,32.1,71.6,71.6v102.5c0,6-4.9,10.9-10.9,10.9H10.9
	c-6,0-10.9-4.9-10.9-10.9V71.6z"/>
<path class="st1" d="M134.7,176.1V71.8c0-35-28.3-63.3-63.1-63.3C36.8,8.5,8.5,36.9,8.5,71.8v104.3c0,0.2,0.2,0.4,0.4,0.4h125.5
	C134.6,176.5,134.7,176.3,134.7,176.1z M71.6,0C32.1,0,0,32.2,0,71.8v104.3c0,4.9,4,8.9,8.9,8.9h125.5c4.9,0,8.9-4,8.9-8.9V71.8
	C143.2,32.2,111.2,0,71.6,0z"/>
</svg>
